# xmcd
#
# Track frame offsets:
#	150
#	11210
#	22621
#	33654
#	45011
#	56557
#	66078
#	77084
#	86659
#	97530
#	109292
#	122701
#
# Disc length: 1773 seconds
#
# Revision: 0
# Processed by: cddbd v1.4PL0 Copyright (c) Steve Scherf et al.
# Submitted via: audiograbber 1.80
#
DISCID=8606eb0c
DTITLE=Locklin, Hank - Best Of Hank Locklin, The
DYEAR=1900
DGENRE=
TTITLE0=Please Help Me I'm Falling In Love With You
TTITLE1=I Was Coming Home To You
TTITLE2=Danny Boy
TTITLE3=Happy Journey
TTITLE4=Fraulein
TTITLE5=Flying South
TTITLE6=Send Me The Pillow You Dream On
TTITLE7=Geisha Girl
TTITLE8=From Here To There To You
TTITLE9=It's A Little More Like Heaven
TTITLE10=Old Bog Road, The
TTITLE11=Let Me Be The One
EXTD=
EXTT0=
EXTT1=
EXTT2=
EXTT3=
EXTT4=
EXTT5=
EXTT6=
EXTT7=
EXTT8=
EXTT9=
EXTT10=
EXTT11=
PLAYORDER=
